HIERARCHY
ROOT Hips
{
	OFFSET 0.000000 89.005402 0.000000
	CHANNELS 6 Xposition Yposition Zposition Xrotation Yrotation Zrotation
	JOINT Spine
	{
		OFFSET 0.116900 10.681000 0.373400
		CHANNELS 3 Xrotation Yrotation Zrotation
		JOINT Spine1
		{
			OFFSET 0.000000 13.840401 0.053500
			CHANNELS 3 Xrotation Yrotation Zrotation
			JOINT Spine2
			{
				OFFSET 0.000000 14.712700 -0.366200
				CHANNELS 3 Xrotation Yrotation Zrotation
				JOINT Neck
				{
					OFFSET 0.000000 35.415497 -3.314200
					CHANNELS 3 Xrotation Yrotation Zrotation
					JOINT Head
					{
						OFFSET 0.000000 16.899200 1.218300
						CHANNELS 3 Xrotation Yrotation Zrotation
						JOINT HeadTop_End
						{
							OFFSET 0.000000 22.206207 2.192500
							CHANNELS 3 Xrotation Yrotation Zrotation
							End Site
							{
								OFFSET 0.000000 22.314178 0.000000
							}
						}
					}
				}
				JOINT LeftShoulder
				{
					OFFSET 12.896400 26.716293 -4.548400
					CHANNELS 3 Xrotation Yrotation Zrotation
					JOINT LeftArm
					{
						OFFSET 19.027000 -4.857010 -1.718400
						CHANNELS 3 Xrotation Yrotation Zrotation
						JOINT LeftForeArm
						{
							OFFSET 24.179897 0.000000 0.000000
							CHANNELS 3 Xrotation Yrotation Zrotation
							JOINT LeftHand
							{
								OFFSET 27.156403 0.000000 0.000000
								CHANNELS 3 Xrotation Yrotation Zrotation
								JOINT LeftHandIndex1
								{
									OFFSET 16.441200 0.000000 0.000000
									CHANNELS 3 Xrotation Yrotation Zrotation
									JOINT LeftHandIndex2
									{
										OFFSET 4.821899 0.000000 0.000000
										CHANNELS 3 Xrotation Yrotation Zrotation
										JOINT LeftHandIndex3
										{
											OFFSET 6.386497 0.000000 0.000000
											CHANNELS 3 Xrotation Yrotation Zrotation
											JOINT LeftHandIndex4
											{
												OFFSET 5.188988 0.000000 0.000000
												CHANNELS 3 Xrotation Yrotation Zrotation
												End Site
												{
													OFFSET -0.178703 5.185913 0.000177
												}
											}
										}
									}
								}
								JOINT LeftHandThumb1
								{
									OFFSET 6.534897 -5.032593 5.900300
									CHANNELS 3 Xrotation Yrotation Zrotation
									JOINT LeftHandThumb2
									{
										OFFSET 3.818176 -2.204422 2.204423
										CHANNELS 3 Xrotation Yrotation Zrotation
										JOINT LeftHandThumb3
										{
											OFFSET 3.252098 -1.877594 1.877601
											CHANNELS 3 Xrotation Yrotation Zrotation
											JOINT LeftHandThumb4
											{
												OFFSET 5.251778 -3.032120 3.032117
												CHANNELS 3 Xrotation Yrotation Zrotation
												End Site
												{
													OFFSET 0.000023 6.780014 0.000000
												}
											}
										}
									}
								}
							}
						}
					}
				}
				JOINT RightShoulder
				{
					OFFSET -12.896300 26.716293 -4.548400
					CHANNELS 3 Xrotation Yrotation Zrotation
					JOINT RightArm
					{
						OFFSET -19.027000 -4.857010 -1.718400
						CHANNELS 3 Xrotation Yrotation Zrotation
						JOINT RightForeArm
						{
							OFFSET -24.179897 0.000000 0.000000
							CHANNELS 3 Xrotation Yrotation Zrotation
							JOINT RightHand
							{
								OFFSET -27.156403 0.000000 0.000000
								CHANNELS 3 Xrotation Yrotation Zrotation
								JOINT RightHandThumb1
								{
									OFFSET -6.591202 -4.852203 5.988100
									CHANNELS 3 Xrotation Yrotation Zrotation
									JOINT RightHandThumb2
									{
										OFFSET -3.818176 -2.204422 2.204423
										CHANNELS 3 Xrotation Yrotation Zrotation
										JOINT RightHandThumb3
										{
											OFFSET -3.252098 -1.877594 1.877601
											CHANNELS 3 Xrotation Yrotation Zrotation
											JOINT RightHandThumb4
											{
												OFFSET -5.251778 -3.032120 3.032117
												CHANNELS 3 Xrotation Yrotation Zrotation
												End Site
												{
													OFFSET -0.000023 6.780014 0.000000
												}
											}
										}
									}
								}
								JOINT RightHandIndex1
								{
									OFFSET -16.029404 0.000000 0.000000
									CHANNELS 3 Xrotation Yrotation Zrotation
									JOINT RightHandIndex2
									{
										OFFSET -5.213303 0.000000 0.000000
										CHANNELS 3 Xrotation Yrotation Zrotation
										JOINT RightHandIndex3
										{
											OFFSET -6.386528 0.000000 0.000000
											CHANNELS 3 Xrotation Yrotation Zrotation
											JOINT RightHandIndex4
											{
												OFFSET -5.189026 0.000000 0.000000
												CHANNELS 3 Xrotation Yrotation Zrotation
												End Site
												{
													OFFSET 0.236702 5.183624 0.001972
												}
											}
										}
									}
								}
							}
						}
					}
				}
			}
		}
	}
	JOINT LeftUpLeg
	{
		OFFSET 14.073000 -7.904099 -1.463000
		CHANNELS 3 Xrotation Yrotation Zrotation
		JOINT LeftLeg
		{
			OFFSET -0.109806 -34.073280 4.093200
			CHANNELS 3 Xrotation Yrotation Zrotation
			JOINT LeftFoot
			{
				OFFSET 0.109806 -29.899420 -6.319000
				CHANNELS 3 Xrotation Yrotation Zrotation
				JOINT LeftToeBase
				{
					OFFSET 1.551100 -14.988700 20.535801
					CHANNELS 3 Xrotation Yrotation Zrotation
					JOINT LeftToe_End
					{
						OFFSET 0.221200 0.570800 13.248301
						CHANNELS 3 Xrotation Yrotation Zrotation
						End Site
						{
							OFFSET 0.000000 13.262435 0.000000
						}
					}
				}
			}
		}
	}
	JOINT RightUpLeg
	{
		OFFSET -13.839300 -7.904099 -1.463000
		CHANNELS 3 Xrotation Yrotation Zrotation
		JOINT RightLeg
		{
			OFFSET 0.109694 -34.073219 4.093300
			CHANNELS 3 Xrotation Yrotation Zrotation
			JOINT RightFoot
			{
				OFFSET -0.109694 -29.899384 -6.319200
				CHANNELS 3 Xrotation Yrotation Zrotation
				JOINT RightToeBase
				{
					OFFSET -1.551100 -14.988700 20.535801
					CHANNELS 3 Xrotation Yrotation Zrotation
					JOINT RightToe_End
					{
						OFFSET -0.221200 0.570900 13.248299
						CHANNELS 3 Xrotation Yrotation Zrotation
						End Site
						{
							OFFSET 0.000000 13.262440 0.000000
						}
					}
				}
			}
		}
	}
}
MOTION
Frames: 8
Frame Time: 0.033333
1.624338 70.839096 87.889938 154.208869 34.313412 -162.206105 4.699117 0.473366 -2.088676 9.406054 0.518892 -4.008190 9.406062 0.518886 -4.008190 -11.077696 19.908238 5.707253 -15.603962 19.670139 -5.878100 -0.000000 -0.000000 0.000000 0.234468 -6.541171 -30.682009 -23.155665 -21.977291 -36.958727 56.859768 -74.523525 37.835088 20.561369 -0.825581 11.685507 -11.479728 5.812873 1.287092 0.190171 1.373437 -11.682569 -0.000000 0.000001 0.000004 -0.000001 0.000002 0.000002 13.610530 1.823269 -5.817344 -0.326008 0.027644 0.803089 0.000003 0.000006 0.000008 0.000000 -0.000000 -0.000001 0.335548 6.380887 21.890235 1.640933 -17.192378 34.841806 58.611998 65.262382 -31.007696 30.748525 10.537079 -2.117066 -4.284809 1.419120 8.817504 4.923886 -12.550467 -2.613713 -0.000004 -0.000002 -0.000030 -0.000003 0.000000 -0.000000 -0.412484 0.841755 12.377215 0.296545 1.199760 24.747652 0.000005 -0.000003 -0.000002 0.000000 -0.000004 0.000004 -68.758374 -2.923741 9.937113 53.343781 -13.532825 2.444203 -7.045213 1.285814 -11.320700 -2.047505 -2.043950 -1.026432 0.000000 0.000002 0.000000 -33.196430 -0.467823 -18.183205 63.785736 -17.502447 2.609879 -39.002118 -11.699448 26.082027 -3.165325 -1.956246 1.674866 -0.000000 0.000001 0.000000 
1.426640 71.642204 89.068527 156.150596 32.398548 -163.045508 4.898955 0.531579 -2.277648 9.807989 0.599223 -4.390980 9.807972 0.599220 -4.390974 -11.264733 18.030757 7.391990 -14.976021 20.071081 -7.557726 0.000000 0.000000 -0.000000 0.247358 -7.002052 -28.583756 -23.258649 -20.844339 -38.481822 51.341251 -72.464742 33.091502 21.359530 -1.735061 13.064793 -10.470062 4.693919 1.260087 0.195138 1.389045 -11.547112 -0.000003 -0.000001 0.000001 0.000000 -0.000003 -0.000000 13.202534 2.086191 -5.867486 -0.326011 0.027654 0.803083 0.000001 0.000008 0.000013 0.000003 -0.000000 -0.000000 0.362297 6.463930 21.471656 0.000692 -15.066234 37.104996 53.129678 63.633369 -27.652912 30.731903 11.931692 -2.920431 -5.178644 1.609362 8.059269 4.810994 -12.295472 -2.597050 -0.000004 -0.000001 -0.000030 0.000002 0.000000 -0.000000 -0.320140 0.849380 11.152591 0.396146 1.202330 23.522849 0.000000 -0.000001 0.000002 -0.000001 -0.000002 -0.000000 -67.075258 -0.809015 9.495741 48.164291 -15.460142 1.658774 -2.996609 0.791911 -11.415416 -1.556935 -2.841102 -0.678123 0.000000 -0.000000 0.000000 -32.247068 -2.319062 -18.593790 62.582196 -18.067811 2.356302 -38.969293 -11.293038 25.129431 -2.366876 -2.595117 1.732831 -0.000000 -0.000000 -0.000000 
1.248068 72.540321 89.942963 159.021571 32.229542 -164.204523 5.313287 0.766853 -2.491258 10.646738 1.025946 -4.862243 10.646730 1.025942 -4.862239 -10.965863 16.217207 7.978455 -15.092082 19.841194 -7.996599 0.000001 -0.000000 -0.000000 0.349398 -6.925370 -27.254126 -22.798468 -19.453017 -39.064997 44.130645 -70.920388 26.677985 20.423708 -2.699750 13.853440 -9.132381 3.344316 0.519993 0.180434 1.327495 -12.069334 -0.000002 0.000003 0.000000 -0.000002 0.000003 0.000000 12.710358 2.434240 -5.880225 -0.326017 0.027660 0.803090 -0.000000 0.000011 0.000013 -0.000000 0.000002 0.000003 0.382577 6.754407 20.647472 -1.850274 -13.033393 39.016626 48.230042 62.043205 -24.894166 30.601672 12.956958 -2.935161 -6.060395 1.772086 7.307471 4.715987 -12.080966 -2.582612 -0.000004 -0.000001 -0.000029 0.000005 0.000000 -0.000000 -0.245987 0.834303 9.947947 0.482162 1.178993 22.318420 0.000001 0.000001 0.000001 -0.000003 -0.000000 -0.000000 -63.844640 1.149836 9.334555 44.557350 -16.832667 1.408031 -0.360067 0.331008 -11.050097 -2.106994 -2.920270 -0.056514 0.000000 -0.000000 0.000000 -30.272440 -4.059677 -19.204091 60.953421 -17.230110 1.901211 -38.187683 -10.864049 24.445121 -1.845739 -2.672741 1.758882 -0.000000 0.000000 -0.000000 
1.073822 73.444023 90.333122 161.791199 33.398023 -165.861582 5.604803 1.166079 -2.490955 11.246616 1.853463 -4.869920 11.246631 1.853456 -4.869921 -10.389901 14.271892 7.898838 -14.697911 19.225627 -8.078496 -0.000000 0.000000 -0.000000 0.496132 -6.518612 -26.595691 -21.717647 -17.389865 -38.774560 36.491973 -70.016262 19.975973 18.125452 -2.834743 14.713645 -7.635286 1.795543 -0.639726 0.155238 1.215164 -13.017203 -0.000002 -0.000001 0.000003 -0.000001 0.000003 0.000003 12.160796 2.835749 -5.861196 -0.326012 0.027654 0.803081 0.000001 0.000005 0.000011 0.000002 -0.000001 0.000003 0.404236 7.118890 19.665233 -3.424765 -11.498221 40.088986 44.421809 61.244933 -23.738247 29.846629 13.506330 -2.327451 -6.906316 1.889440 6.569577 4.647469 -11.926312 -2.572002 -0.000007 -0.000001 -0.000031 -0.000001 0.000001 0.000000 -0.191603 0.792153 8.676204 0.554679 1.123361 21.047429 -0.000003 -0.000001 -0.000001 0.000002 -0.000000 0.000000 -60.011149 1.506829 9.981808 42.119113 -17.123042 1.276909 0.707918 0.323532 -11.855458 -2.105352 -2.788550 0.480517 -0.000000 -0.000003 -0.000000 -27.739444 -5.591257 -19.057172 58.552398 -15.941694 1.442408 -37.080523 -10.173968 23.508961 -1.577721 -2.613679 1.580875 0.000000 0.000000 0.000000 
0.949111 74.291656 90.466774 164.382163 34.773791 -167.695324 5.808898 1.572884 -2.397206 11.669757 2.718464 -4.674400 11.669768 2.718468 -4.674396 -9.700064 12.609252 7.424909 -14.203051 18.744011 -7.909103 -0.000000 0.000000 0.000000 0.642318 -6.115699 -25.577394 -20.701554 -14.797953 -38.691536 30.750601 -68.632070 15.404522 16.867996 -3.045195 16.455550 -6.124393 0.103835 -1.939420 0.122461 1.080463 -14.158547 -0.000001 0.000001 0.000003 -0.000001 -0.000001 0.000001 11.580901 3.259574 -5.816932 -0.325997 0.027645 0.803057 -0.000000 0.000008 0.000016 0.000002 -0.000001 0.000003 0.442614 7.406784 18.644733 -4.296679 -10.828580 40.878614 40.111601 61.712808 -22.366126 27.629169 13.817830 -1.827645 -7.692204 1.942864 5.851665 4.614070 -11.851737 -2.567404 -0.000006 -0.000000 -0.000030 -0.000001 -0.000001 -0.000000 -0.134863 0.698987 6.728243 0.616044 1.049525 19.533139 -0.000003 0.000001 -0.000002 -0.000002 -0.000001 -0.000000 -56.299514 1.378903 10.643941 40.579807 -16.616160 1.266084 0.724241 0.367043 -11.922029 -1.909664 -2.788125 0.359995 -0.000000 0.000001 0.000000 -24.944699 -6.667240 -18.482241 55.961905 -15.058518 1.015431 -35.801164 -9.565998 22.854356 -1.362722 -2.494489 1.506883 -0.000000 -0.000001 0.000000 
0.916088 75.001915 90.435631 166.672585 36.372427 -169.351481 5.885059 1.993970 -2.302202 11.836685 3.603520 -4.495027 11.836684 3.603525 -4.495031 -8.960906 11.092500 6.635029 -13.553260 18.284780 -7.329500 0.000000 -0.000000 -0.000000 0.787586 -5.676651 -24.569090 -19.919658 -12.118963 -38.445236 26.328837 -66.843694 12.213935 16.188014 -3.322361 17.547704 -4.710841 -1.641702 -3.116471 0.088225 0.951013 -15.261204 -0.000004 0.000002 0.000006 0.000002 -0.000000 -0.000002 10.998351 3.675433 -5.755137 -0.326007 0.027652 0.803080 -0.000002 0.000009 0.000015 -0.000001 -0.000001 -0.000002 0.508889 7.528083 17.556919 -4.465333 -10.846900 41.911216 34.651950 62.976113 -19.671449 24.121102 13.884466 -1.032887 -8.393417 1.913219 5.158634 4.624353 -11.874013 -2.568385 -0.000004 -0.000001 -0.000029 -0.000004 -0.000002 0.000002 -0.081066 0.561830 4.288155 0.650952 0.982401 18.094658 -0.000001 -0.000003 -0.000002 0.000001 0.000000 -0.000001 -52.930636 0.964317 11.535855 39.757216 -15.697846 1.089202 0.351126 0.447229 -12.149596 -1.904897 -2.809193 0.350928 -0.000000 0.000002 0.000000 -22.465913 -7.630178 -18.036317 53.666695 -13.935533 0.698536 -34.729992 -8.953044 22.096726 -1.280526 -2.229491 1.396582 -0.000000 0.000000 0.000000 
0.945767 75.483398 90.245293 169.053903 38.249544 -171.294833 5.913705 2.459115 -2.168547 11.907160 4.575087 -4.234563 11.907159 4.575089 -4.234567 -8.237871 9.716894 5.644191 -12.700299 18.003656 -6.571336 -0.000001 -0.000000 0.000000 0.956011 -5.080127 -23.459200 -19.405121 -9.640783 -38.554454 22.378165 -64.788941 9.608253 15.439124 -2.748110 17.923721 -3.467393 -3.321249 -3.925254 0.058262 0.854594 -16.092969 -0.000004 -0.000002 0.000004 -0.000003 0.000002 -0.000002 10.441593 4.053962 -5.684751 -0.326019 0.027659 0.803082 0.000001 0.000009 0.000012 0.000000 0.000000 -0.000001 0.562224 7.690247 16.816940 -4.153849 -11.683693 42.483261 30.038622 64.618760 -17.485387 20.991408 13.731758 0.286804 -8.984976 1.780774 4.494658 4.686900 -12.015146 -2.578160 -0.000004 -0.000002 -0.000030 0.000003 0.000000 -0.000000 -0.041726 0.393909 1.677315 0.678258 0.887477 16.556785 0.000003 -0.000004 -0.000002 0.000001 -0.000001 -0.000000 -49.930889 0.683040 12.884409 40.126368 -14.955833 0.855100 -0.767190 0.610988 -12.147384 -1.901652 -2.834499 0.343645 -0.000000 -0.000001 0.000000 -19.992848 -8.572034 -17.620918 51.817623 -12.432069 0.634648 -34.007399 -8.334097 21.222241 -1.384828 -1.847123 0.995949 -0.000000 0.000002 -0.000000 
1.112833 75.976318 89.918259 171.563601 39.922005 -173.499605 5.927190 2.897234 -2.013367 11.942455 5.489004 -3.920532 11.942466 5.488986 -3.920529 -7.576485 8.409487 4.544648 -11.811838 17.962117 -5.678983 -0.000001 0.000000 0.000000 1.108605 -4.485057 -21.902940 -19.118668 -7.308956 -39.793795 19.631263 -62.339594 8.352667 15.544537 -1.978458 18.934644 -2.433568 -4.793406 -4.134073 0.046463 0.816463 -16.421706 -0.000003 0.000003 0.000000 0.000002 0.000003 0.000002 9.939660 4.366774 -5.615837 -0.326001 0.027644 0.803078 -0.000001 0.000008 0.000014 0.000000 0.000001 0.000000 0.617030 7.871618 16.248040 -3.929954 -12.652662 43.185521 24.893695 64.998464 -14.351245 18.516134 13.864264 1.431480 -9.441488 1.525608 3.863712 4.810279 -12.293796 -2.596958 -0.000006 -0.000002 -0.000028 -0.000002 -0.000002 0.000002 -0.028376 0.209480 -0.783135 0.691113 0.767925 15.109289 -0.000001 -0.000003 -0.000001 0.000000 0.000002 -0.000001 -47.005502 1.067695 14.417645 40.602432 -14.942762 0.688181 -2.024130 0.773827 -11.875142 -1.918663 -2.870057 0.357616 -0.000000 0.000002 0.000000 -17.149551 -9.536573 -17.054830 49.827019 -11.217852 0.705734 -33.333953 -7.708622 20.314714 -1.669456 -1.395754 0.600148 -0.000000 -0.000001 -0.000000 
